<svg width="1011" height="123" viewBox="0 0 1011 123" fill="none" xmlns="http://www.w3.org/2000/svg">
<path d="M78.6789 87.4H37.6789L28.8789 120H0.878906L42.4789 -10.6H75.0789L116.479 120H87.4789L78.6789 87.4ZM73.0789 66.2L69.4789 52.8C67.8789 46.9333 65.4789 37.7333 62.2789 25.2L58.4789 10.4H57.6789C53.6789 27.6 50.1456 41.7333 47.0789 52.8L43.4789 66.2H73.0789ZM231.351 -10.6H275.151C306.884 -10.6 322.751 0.199991 322.751 21.8C322.751 27.9333 321.151 33.6667 317.951 39C314.751 44.3333 310.484 48 305.151 50V50.8C312.484 52.6667 318.351 56.2 322.751 61.4C327.151 66.4667 329.351 73.2 329.351 81.6C329.351 94.2667 324.684 103.867 315.351 110.4C306.017 116.8 293.817 120 278.751 120H231.351V-10.6ZM273.551 42.2C281.151 42.2 286.751 40.8 290.351 38C294.084 35.0667 295.951 31 295.951 25.8C295.951 20.4667 294.151 16.6 290.551 14.2C286.951 11.8 281.351 10.6 273.751 10.6H258.751V42.2H273.551ZM276.351 98.8C293.817 98.8 302.551 92.4667 302.551 79.8C302.551 73.8 300.351 69.4667 295.951 66.8C291.684 64 285.151 62.6 276.351 62.6H258.751V98.8H276.351ZM504.259 122.4C492.659 122.4 482.392 119.667 473.459 114.2C464.659 108.733 457.792 100.867 452.859 90.6C447.925 80.2 445.459 68.0667 445.459 54.2C445.459 40.2 447.925 28.2 452.859 18.2C457.792 8.06666 464.659 0.333328 473.459 -5C482.392 -10.3333 492.659 -13 504.259 -13C515.859 -13 526.059 -10.3333 534.859 -5C543.792 0.333328 550.659 8.06666 555.459 18.2C560.392 28.3333 562.859 40.3333 562.859 54.2C562.859 68.0667 560.392 80.2 555.459 90.6C550.659 100.867 543.792 108.733 534.859 114.2C526.059 119.667 515.859 122.4 504.259 122.4ZM504.259 98.6C513.592 98.6 520.992 94.6 526.459 86.6C532.059 78.6 534.859 67.8 534.859 54.2C534.859 40.7333 532.059 30.1333 526.459 22.4C520.992 14.6667 513.592 10.8 504.259 10.8C494.792 10.8 487.325 14.6667 481.859 22.4C476.392 30 473.659 40.6 473.659 54.2C473.659 67.8 476.392 78.6 481.859 86.6C487.459 94.6 494.925 98.6 504.259 98.6ZM738.591 122.4C721.925 122.4 709.191 117.4 700.391 107.4C691.725 97.4 687.391 81.8 687.391 60.6V-10.6H714.791V63.2C714.791 75.8667 716.791 84.9333 720.791 90.4C724.791 95.8667 730.725 98.6 738.591 98.6C746.591 98.6 752.658 95.8667 756.791 90.4C760.925 84.9333 762.991 75.8667 762.991 63.2V-10.6H789.391V60.6C789.391 81.8 785.058 97.4 776.391 107.4C767.858 117.4 755.258 122.4 738.591 122.4ZM946.213 12.4H909.813V-10.6H1010.21V12.4H973.613V120H946.213V12.4Z" fill="#FFF4D7"/>
</svg>
