<svg width="1500" height="150" viewBox="0 0 1500 150" fill="none" xmlns="http://www.w3.org/2000/svg">
<g clip-path="url(#clip0)">
<rect width="1500" height="150" fill="#F3E7C7"/>
<rect width="1500" height="867" fill="#F3E7C7"/>
<path d="M320.659 89.4H279.659L270.859 122H242.859L284.459 -8.60001H317.059L358.459 122H329.459L320.659 89.4ZM315.059 68.2L311.459 54.8C309.859 48.9333 307.459 39.7333 304.259 27.2L300.459 12.4H299.659C295.659 29.6 292.126 43.7333 289.059 54.8L285.459 68.2H315.059ZM473.331 -8.60001H517.131C548.865 -8.60001 564.731 2.19999 564.731 23.8C564.731 29.9333 563.131 35.6667 559.931 41C556.731 46.3333 552.465 50 547.131 52V52.8C554.465 54.6667 560.331 58.2 564.731 63.4C569.131 68.4667 571.331 75.2 571.331 83.6C571.331 96.2667 566.665 105.867 557.331 112.4C547.998 118.8 535.798 122 520.731 122H473.331V-8.60001ZM515.531 44.2C523.131 44.2 528.731 42.8 532.331 40C536.065 37.0667 537.931 33 537.931 27.8C537.931 22.4667 536.131 18.6 532.531 16.2C528.931 13.8 523.331 12.6 515.731 12.6H500.731V44.2H515.531ZM518.331 100.8C535.798 100.8 544.531 94.4667 544.531 81.8C544.531 75.8 542.331 71.4667 537.931 68.8C533.665 66 527.131 64.6 518.331 64.6H500.731V100.8H518.331ZM746.239 124.4C734.639 124.4 724.372 121.667 715.439 116.2C706.639 110.733 699.772 102.867 694.839 92.6C689.906 82.2 687.439 70.0667 687.439 56.2C687.439 42.2 689.906 30.2 694.839 20.2C699.772 10.0667 706.639 2.33333 715.439 -3C724.372 -8.33334 734.639 -11 746.239 -11C757.839 -11 768.039 -8.33334 776.839 -3C785.772 2.33333 792.639 10.0667 797.439 20.2C802.372 30.3333 804.839 42.3333 804.839 56.2C804.839 70.0667 802.372 82.2 797.439 92.6C792.639 102.867 785.772 110.733 776.839 116.2C768.039 121.667 757.839 124.4 746.239 124.4ZM746.239 100.6C755.572 100.6 762.972 96.6 768.439 88.6C774.039 80.6 776.839 69.8 776.839 56.2C776.839 42.7333 774.039 32.1333 768.439 24.4C762.972 16.6667 755.572 12.8 746.239 12.8C736.772 12.8 729.306 16.6667 723.839 24.4C718.372 32 715.639 42.6 715.639 56.2C715.639 69.8 718.372 80.6 723.839 88.6C729.439 96.6 736.906 100.6 746.239 100.6ZM980.572 124.4C963.905 124.4 951.172 119.4 942.372 109.4C933.705 99.4 929.372 83.8 929.372 62.6V-8.60001H956.772V65.2C956.772 77.8667 958.772 86.9333 962.772 92.4C966.772 97.8667 972.705 100.6 980.572 100.6C988.572 100.6 994.639 97.8667 998.772 92.4C1002.91 86.9333 1004.97 77.8667 1004.97 65.2V-8.60001H1031.37V62.6C1031.37 83.8 1027.04 99.4 1018.37 109.4C1009.84 119.4 997.239 124.4 980.572 124.4ZM1188.19 14.4H1151.79V-8.60001H1252.19V14.4H1215.59V122H1188.19V14.4Z" fill="#F4F4F4"/>
</g>
<defs>
<clipPath id="clip0">
<rect width="1500" height="150" fill="white"/>
</clipPath>
</defs>
</svg>
