<svg width="1500" height="173" viewBox="0 0 1500 173" fill="none" xmlns="http://www.w3.org/2000/svg">
<g clip-path="url(#clip0)">
<rect width="1500" height="173" fill="#F3E7C7"/>
<rect y="-700" width="1500" height="867" fill="#F3E7C7"/>
<path d="M139.217 180.4C128.017 180.4 117.817 177.8 108.617 172.6C99.5505 167.4 92.3505 159.8 87.0172 149.8C81.6839 139.667 79.0172 127.533 79.0172 113.4C79.0172 99.4 81.7505 87.2667 87.2172 77C92.6839 66.6 100.084 58.6667 109.417 53.2C118.751 47.7333 128.951 45 140.017 45C147.884 45 155.084 46.6 161.617 49.8C168.284 52.8667 174.017 56.8667 178.817 61.8L164.217 79.4C160.617 75.9333 156.884 73.3333 153.017 71.6C149.284 69.7333 145.151 68.8 140.617 68.8C134.217 68.8 128.484 70.6 123.417 74.2C118.351 77.6667 114.351 82.7333 111.417 89.4C108.617 95.9333 107.217 103.6 107.217 112.4C107.217 126.133 110.151 136.933 116.017 144.8C122.017 152.667 130.084 156.6 140.217 156.6C150.217 156.6 158.951 152.4 166.417 144L181.017 161.2C170.084 174 156.151 180.4 139.217 180.4ZM372.233 178L346.233 129.6H328.833V178H301.433V47.4H347.433C362.633 47.4 374.699 50.5333 383.633 56.8C392.566 62.9333 397.033 73.1333 397.033 87.4C397.033 96.7333 394.899 104.6 390.633 111C386.366 117.267 380.433 121.933 372.833 125L403.033 178H372.233ZM328.833 107.8H345.033C353.299 107.8 359.566 106.133 363.833 102.8C368.099 99.3333 370.233 94.2 370.233 87.4C370.233 80.8667 368.166 76.2 364.033 73.4C359.899 70.6 353.566 69.2 345.033 69.2H328.833V107.8ZM542.578 130.8L503.178 47.4H532.578L545.178 78.6L555.978 107.4H556.778C557.311 106.2 557.845 104.933 558.378 103.6C558.911 102.267 559.511 100.8 560.178 99.2C563.378 91.0667 566.045 84.2 568.178 78.6L580.778 47.4H609.378L569.978 130.8V178H542.578V130.8ZM759.388 180.4C750.588 180.4 741.988 178.8 733.587 175.6C725.188 172.267 717.788 167.533 711.388 161.4L727.188 142.6C731.988 146.867 737.254 150.267 742.988 152.8C748.854 155.333 754.521 156.6 759.988 156.6C766.388 156.6 771.254 155.4 774.588 153C778.054 150.467 779.788 147 779.788 142.6C779.788 139.8 778.988 137.467 777.388 135.6C775.921 133.733 773.988 132.2 771.588 131C769.321 129.8 765.588 128.133 760.388 126L743.188 118.6C735.454 115.4 729.121 110.933 724.188 105.2C719.254 99.3333 716.788 92 716.788 83.2C716.788 76.1333 718.721 69.7333 722.588 64C726.588 58.1333 732.054 53.5333 738.988 50.2C745.921 46.7333 753.721 45 762.388 45C769.988 45 777.454 46.5333 784.788 49.6C792.121 52.5333 798.454 56.6667 803.788 62L789.988 79.4C785.454 75.8 780.988 73.1333 776.588 71.4C772.188 69.6667 767.454 68.8 762.388 68.8C756.921 68.8 752.588 69.9333 749.388 72.2C746.188 74.4667 744.588 77.6 744.588 81.6C744.588 84.4 745.388 86.7333 746.988 88.6C748.721 90.4667 750.788 92 753.188 93.2C755.721 94.4 759.588 96.0667 764.788 98.2L781.588 105C789.988 108.467 796.454 113.067 800.988 118.8C805.521 124.4 807.788 131.6 807.788 140.4C807.788 147.733 805.854 154.467 801.988 160.6C798.121 166.6 792.521 171.4 785.188 175C777.854 178.6 769.254 180.4 759.388 180.4ZM952.233 70.4H915.833V47.4H1016.23V70.4H979.633V178H952.233V70.4ZM1189.97 145.4H1148.97L1140.17 178H1112.17L1153.77 47.4H1186.37L1227.77 178H1198.77L1189.97 145.4ZM1184.37 124.2L1180.77 110.8C1179.17 104.933 1176.77 95.7333 1173.57 83.2L1169.77 68.4H1168.97C1164.97 85.6 1161.44 99.7333 1158.37 110.8L1154.77 124.2H1184.37ZM1342.64 47.4H1370.04V155H1422.44V178H1342.64V47.4Z" fill="#F4F4F4"/>
</g>
<defs>
<clipPath id="clip0">
<rect width="1500" height="173" fill="white"/>
</clipPath>
</defs>
</svg>
