<svg width="1500" height="903" viewBox="0 0 1500 903" fill="none" xmlns="http://www.w3.org/2000/svg">
<rect x="289.5" y="903.5" width="300" height="903" transform="rotate(180 289.5 903.5)" fill="#75909C"/>
<path d="M98.5625 777.251H149.75C154.475 783.668 157.946 790.522 160.162 797.814C162.321 805.047 163.4 812.805 163.4 821.089C163.4 831.414 161.796 840.776 158.587 849.176C155.379 857.518 150.917 864.664 145.2 870.614C139.483 876.505 132.658 881.055 124.725 884.264C116.792 887.472 108.129 889.076 98.7375 889.076C89.2292 889.076 80.5083 887.53 72.575 884.439C64.6417 881.347 57.8167 876.972 52.1 871.314C46.3833 865.597 41.95 858.685 38.8 850.576C35.65 842.468 34.075 833.368 34.075 823.276C34.075 818.143 34.4833 813.36 35.3 808.926C36.1167 804.434 37.2542 800.293 38.7125 796.501C40.1125 792.651 41.8333 789.151 43.875 786.001C45.9167 782.851 48.1625 779.964 50.6125 777.339L61.2875 784.076C62.9792 785.126 64.0292 786.497 64.4375 788.189C64.7875 789.88 64.35 791.718 63.125 793.701C62.0167 795.626 60.9083 797.551 59.8 799.476C58.6917 801.401 57.7292 803.559 56.9125 805.951C56.0958 808.284 55.425 810.939 54.9 813.914C54.375 816.83 54.1125 820.214 54.1125 824.064C54.1125 830.305 55.1625 835.964 57.2625 841.039C59.3625 846.055 62.3667 850.343 66.275 853.901C70.1833 857.46 74.8792 860.201 80.3625 862.126C85.8458 864.051 91.9708 865.014 98.7375 865.014C105.971 865.014 112.446 863.993 118.162 861.951C123.821 859.851 128.633 856.935 132.6 853.201C136.508 849.41 139.512 844.86 141.612 839.551C143.654 834.243 144.675 828.322 144.675 821.789C144.675 817.122 144.179 812.951 143.187 809.276C142.196 805.601 140.854 802.014 139.162 798.514H116.237V814.439C116.237 815.955 115.829 817.151 115.012 818.026C114.137 818.843 113.087 819.251 111.862 819.251H98.5625L98.5625 777.251ZM95.675 698.836C95.675 694.403 95.1208 690.553 94.0125 687.286C92.9042 683.961 91.3875 681.249 89.4625 679.149C87.4792 676.99 85.1458 675.386 82.4625 674.336C79.7792 673.286 76.8333 672.761 73.625 672.761C67.2083 672.761 62.2792 674.89 58.8375 679.149C55.3958 683.349 53.675 689.794 53.675 698.486V713.536H95.675V698.836ZM162 638.286V659.549C162 663.574 160.425 666.49 157.275 668.299L116.762 694.899C115.246 695.89 114.167 696.999 113.525 698.224C112.883 699.39 112.563 701.14 112.563 703.474V713.536H162L162 737.074H35.475V698.486C35.475 689.911 36.3792 682.561 38.1875 676.436C39.9375 670.253 42.4167 665.207 45.625 661.299C48.8333 657.332 52.6833 654.415 57.175 652.549C61.6083 650.682 66.5083 649.749 71.875 649.749C76.1333 649.749 80.1583 650.39 83.95 651.674C87.7417 652.899 91.1833 654.707 94.275 657.099C97.3667 659.432 100.079 662.349 102.412 665.849C104.746 669.29 106.583 673.228 107.925 677.661C108.8 676.144 109.85 674.744 111.075 673.461C112.242 672.178 113.642 671.011 115.275 669.961L162 638.286ZM114.225 540.272L72.1375 555.672C70.2708 556.431 68.0542 557.218 65.4875 558.035C62.9208 558.852 60.15 559.668 57.175 560.485C60.15 561.243 62.95 562.031 65.575 562.847C68.1417 563.664 70.3875 564.452 72.3125 565.21L114.225 580.522V540.272ZM162 498.71V516.91C162 518.952 161.504 520.614 160.512 521.897C159.462 523.181 158.179 524.143 156.662 524.785L130.85 534.235V586.647L156.662 596.097C158.004 596.564 159.229 597.468 160.337 598.81C161.446 600.152 162 601.814 162 603.797V622.172L35.475 572.385V548.41L162 498.71ZM99.0875 426.989C99.0875 422.672 98.5625 418.91 97.5125 415.701C96.4042 412.493 94.8583 409.839 92.875 407.739C90.8333 405.58 88.3833 403.976 85.525 402.926C82.6083 401.876 79.3708 401.351 75.8125 401.351C72.4292 401.351 69.3667 401.876 66.625 402.926C63.8833 403.976 61.55 405.551 59.625 407.651C57.7 409.751 56.2417 412.405 55.25 415.614C54.2 418.822 53.675 422.614 53.675 426.989V444.576H99.0875V426.989ZM35.475 426.989C35.475 418.53 36.4667 411.21 38.45 405.026C40.4333 398.843 43.2042 393.739 46.7625 389.714C50.3208 385.689 54.5792 382.714 59.5375 380.789C64.4958 378.805 69.9208 377.814 75.8125 377.814C81.9375 377.814 87.5667 378.834 92.7 380.876C97.775 382.918 102.15 385.98 105.825 390.064C109.5 394.147 112.358 399.28 114.4 405.464C116.442 411.589 117.462 418.764 117.462 426.989V444.576H162V468.114H35.475L35.475 426.989ZM35.475 235.602H162V259.227H106.7V318.639H162V342.264H35.475V318.639H89.9V259.227H35.475V235.602ZM162 166.3V189.925H35.475V166.3H162ZM132.162 33.5846C132.162 32.3012 132.658 31.1637 133.65 30.1721L143.712 20.8971C150.071 26.0304 154.942 32.3596 158.325 39.8846C161.708 47.3512 163.4 56.3346 163.4 66.8346C163.4 76.2262 161.796 84.6846 158.587 92.2096C155.379 99.6762 150.917 106.064 145.2 111.372C139.483 116.68 132.658 120.764 124.725 123.622C116.792 126.422 108.129 127.822 98.7375 127.822C89.2292 127.822 80.5375 126.305 72.6625 123.272C64.7292 120.239 57.9042 115.98 52.1875 110.497C46.4708 104.955 42.0375 98.3637 38.8875 90.7221C35.6792 83.0804 34.075 74.6221 34.075 65.3471C34.075 56.1304 35.5917 47.9637 38.625 40.8471C41.6583 33.6721 45.625 27.5762 50.525 22.5596L61.4625 30.4346C62.1625 30.9012 62.775 31.5137 63.3 32.2721C63.825 32.9721 64.0875 33.9637 64.0875 35.2471C64.0875 36.1221 63.8542 37.0262 63.3875 37.9596C62.8625 38.8929 62.25 39.9137 61.55 41.0221C60.7917 42.1304 59.975 43.4137 59.1 44.8721C58.225 46.3304 57.4375 48.0221 56.7375 49.9471C55.9792 51.8721 55.3667 54.1179 54.9 56.6846C54.375 59.1929 54.1125 62.1096 54.1125 65.4346C54.1125 71.0929 55.1333 76.2846 57.175 81.0096C59.1583 85.6762 62.075 89.7012 65.925 93.0846C69.7167 96.4679 74.3833 99.0929 79.925 100.96C85.4083 102.826 91.6792 103.76 98.7375 103.76C105.854 103.76 112.183 102.768 117.725 100.785C123.267 98.7429 127.933 96.0012 131.725 92.5596C135.517 89.1179 138.433 85.0637 140.475 80.3971C142.458 75.7304 143.45 70.7137 143.45 65.3471C143.45 62.1387 143.275 59.2512 142.925 56.6846C142.575 54.0596 142.021 51.6679 141.262 49.5096C140.504 47.2929 139.542 45.2221 138.375 43.2971C137.15 41.3137 135.662 39.3596 133.912 37.4346C133.387 36.8512 132.979 36.2387 132.687 35.5971C132.337 34.9554 132.162 34.2846 132.162 33.5846Z" fill="#F3E7C7"/>
<path d="M224.737 696.364C234.012 696.364 242.529 697.91 250.287 701.002C258.046 704.093 264.725 708.439 270.325 714.039C275.925 719.639 280.271 726.377 283.362 734.252C286.454 742.127 288 750.877 288 760.502V808.714H161.475V760.502C161.475 750.877 163.05 742.127 166.2 734.252C169.292 726.377 173.637 719.639 179.237 714.039C184.779 708.439 191.429 704.093 199.187 701.002C206.946 697.91 215.462 696.364 224.737 696.364ZM224.737 720.514C217.796 720.514 211.583 721.448 206.1 723.314C200.558 725.123 195.892 727.777 192.1 731.277C188.25 734.718 185.304 738.918 183.262 743.877C181.221 748.777 180.2 754.318 180.2 760.502V785.089H269.275V760.502C269.275 754.318 268.254 748.777 266.212 743.877C264.171 738.918 261.254 734.718 257.462 731.277C253.612 727.777 248.946 725.123 243.462 723.314C237.921 721.448 231.679 720.514 224.737 720.514ZM180.2 634.459H215.287V590.184H233.4V634.459H269.187V578.284H288V658.084H161.475V578.284H180.2V634.459ZM184.487 472.55C185.712 473.25 186.617 474.009 187.2 474.825C187.725 475.584 187.987 476.546 187.987 477.713C187.987 478.938 187.55 480.279 186.675 481.738C185.742 483.138 184.721 484.829 183.612 486.813C182.504 488.796 181.512 491.129 180.637 493.813C179.704 496.438 179.237 499.559 179.237 503.175C179.237 506.442 179.646 509.3 180.462 511.75C181.221 514.2 182.3 516.271 183.7 517.963C185.1 519.596 186.792 520.821 188.775 521.638C190.7 522.454 192.829 522.863 195.162 522.863C198.137 522.863 200.617 522.046 202.6 520.413C204.583 518.721 206.275 516.504 207.675 513.763C209.075 511.021 210.329 507.9 211.437 504.4C212.546 500.9 213.742 497.313 215.025 493.638C216.25 489.963 217.708 486.375 219.4 482.875C221.033 479.375 223.133 476.254 225.7 473.513C228.208 470.771 231.3 468.584 234.975 466.95C238.65 465.259 243.112 464.413 248.362 464.413C254.079 464.413 259.446 465.404 264.462 467.388C269.421 469.313 273.767 472.171 277.5 475.963C281.175 479.696 284.092 484.275 286.25 489.7C288.35 495.125 289.4 501.338 289.4 508.338C289.4 512.363 288.992 516.329 288.175 520.238C287.417 524.146 286.308 527.909 284.85 531.525C283.392 535.084 281.642 538.438 279.6 541.588C277.558 544.738 275.283 547.538 272.775 549.988L261.487 543.075C260.671 542.492 260 541.734 259.475 540.8C258.892 539.867 258.6 538.875 258.6 537.825C258.6 536.367 259.212 534.792 260.437 533.1C261.604 531.409 262.917 529.396 264.375 527.063C265.833 524.729 267.175 522.017 268.4 518.925C269.567 515.775 270.15 512.013 270.15 507.638C270.15 500.929 268.575 495.738 265.425 492.063C262.217 488.388 257.637 486.55 251.687 486.55C248.362 486.55 245.65 487.396 243.55 489.088C241.45 490.721 239.7 492.909 238.3 495.65C236.842 498.392 235.617 501.513 234.625 505.013C233.633 508.513 232.554 512.071 231.387 515.688C230.221 519.304 228.821 522.863 227.187 526.363C225.554 529.863 223.425 532.984 220.8 535.725C218.175 538.467 214.908 540.684 211 542.375C207.033 544.009 202.162 544.825 196.387 544.825C191.779 544.825 187.287 543.921 182.912 542.113C178.537 540.246 174.658 537.563 171.275 534.063C167.892 530.563 165.179 526.246 163.137 521.113C161.096 515.979 160.075 510.088 160.075 503.438C160.075 495.971 161.242 489.088 163.575 482.788C165.908 476.488 169.175 471.121 173.375 466.688L184.487 472.55ZM288 402.755V426.38H161.475L161.475 402.755H288ZM224.562 252.627H275.75C280.475 259.044 283.946 265.898 286.162 273.19C288.321 280.423 289.4 288.181 289.4 296.465C289.4 306.79 287.796 316.152 284.587 324.552C281.379 332.894 276.917 340.04 271.2 345.99C265.483 351.881 258.658 356.431 250.725 359.64C242.792 362.848 234.129 364.452 224.737 364.452C215.229 364.452 206.508 362.906 198.575 359.815C190.642 356.723 183.817 352.348 178.1 346.69C172.383 340.973 167.95 334.06 164.8 325.952C161.65 317.844 160.075 308.744 160.075 298.652C160.075 293.519 160.483 288.735 161.3 284.302C162.117 279.81 163.254 275.669 164.712 271.877C166.112 268.027 167.833 264.527 169.875 261.377C171.917 258.227 174.162 255.34 176.612 252.715L187.287 259.452C188.979 260.502 190.029 261.873 190.437 263.565C190.787 265.256 190.35 267.094 189.125 269.077C188.017 271.002 186.908 272.927 185.8 274.852C184.692 276.777 183.729 278.935 182.912 281.327C182.096 283.66 181.425 286.315 180.9 289.29C180.375 292.206 180.112 295.59 180.112 299.44C180.112 305.681 181.162 311.34 183.262 316.415C185.362 321.431 188.367 325.719 192.275 329.277C196.183 332.835 200.879 335.577 206.362 337.502C211.846 339.427 217.971 340.39 224.737 340.39C231.971 340.39 238.446 339.369 244.162 337.327C249.821 335.227 254.633 332.31 258.6 328.577C262.508 324.785 265.512 320.235 267.612 314.927C269.654 309.619 270.675 303.698 270.675 297.165C270.675 292.498 270.179 288.327 269.187 284.652C268.196 280.977 266.854 277.39 265.162 273.89H242.237V289.815C242.237 291.331 241.829 292.527 241.012 293.402C240.137 294.219 239.087 294.627 237.862 294.627H224.562V252.627ZM161.475 105.787H288V117.862C288 119.729 287.708 121.304 287.125 122.587C286.483 123.812 285.433 125.008 283.975 126.175L199.625 192.237C203.475 191.887 207.033 191.712 210.3 191.712H288V212.45H161.475V200.112C161.475 199.12 161.533 198.275 161.65 197.575C161.708 196.816 161.883 196.175 162.175 195.65C162.408 195.066 162.787 194.512 163.312 193.987C163.779 193.462 164.421 192.879 165.237 192.237L249.937 125.912C247.896 126.087 245.883 126.233 243.9 126.35C241.917 126.466 240.079 126.525 238.387 126.525H161.475V105.787Z" fill="#F4F4F4"/>
</svg>
