<svg width="1500" height="869" viewBox="0 0 1500 869" fill="none" xmlns="http://www.w3.org/2000/svg">
<rect width="1500" height="867" fill="#F3E7C7"/>
<path d="M139.217 880.4C128.017 880.4 117.817 877.8 108.617 872.6C99.5505 867.4 92.3505 859.8 87.0172 849.8C81.6839 839.667 79.0172 827.533 79.0172 813.4C79.0172 799.4 81.7505 787.267 87.2172 777C92.6839 766.6 100.084 758.667 109.417 753.2C118.751 747.733 128.951 745 140.017 745C147.884 745 155.084 746.6 161.617 749.8C168.284 752.867 174.017 756.867 178.817 761.8L164.217 779.4C160.617 775.933 156.884 773.333 153.017 771.6C149.284 769.733 145.151 768.8 140.617 768.8C134.217 768.8 128.484 770.6 123.417 774.2C118.351 777.667 114.351 782.733 111.417 789.4C108.617 795.933 107.217 803.6 107.217 812.4C107.217 826.133 110.151 836.933 116.017 844.8C122.017 852.667 130.084 856.6 140.217 856.6C150.217 856.6 158.951 852.4 166.417 844L181.017 861.2C170.084 874 156.151 880.4 139.217 880.4ZM372.233 878L346.233 829.6H328.833V878H301.433V747.4H347.433C362.633 747.4 374.699 750.533 383.633 756.8C392.566 762.933 397.033 773.133 397.033 787.4C397.033 796.733 394.899 804.6 390.633 811C386.366 817.267 380.433 821.933 372.833 825L403.033 878H372.233ZM328.833 807.8H345.033C353.299 807.8 359.566 806.133 363.833 802.8C368.099 799.333 370.233 794.2 370.233 787.4C370.233 780.867 368.166 776.2 364.033 773.4C359.899 770.6 353.566 769.2 345.033 769.2H328.833V807.8ZM542.578 830.8L503.178 747.4H532.578L545.178 778.6L555.978 807.4H556.778C557.311 806.2 557.845 804.933 558.378 803.6C558.911 802.267 559.511 800.8 560.178 799.2C563.378 791.067 566.045 784.2 568.178 778.6L580.778 747.4H609.378L569.978 830.8V878H542.578V830.8ZM759.388 880.4C750.588 880.4 741.988 878.8 733.587 875.6C725.188 872.267 717.788 867.533 711.388 861.4L727.188 842.6C731.988 846.867 737.254 850.267 742.988 852.8C748.854 855.333 754.521 856.6 759.988 856.6C766.388 856.6 771.254 855.4 774.588 853C778.054 850.467 779.788 847 779.788 842.6C779.788 839.8 778.988 837.467 777.388 835.6C775.921 833.733 773.988 832.2 771.588 831C769.321 829.8 765.588 828.133 760.388 826L743.188 818.6C735.454 815.4 729.121 810.933 724.188 805.2C719.254 799.333 716.788 792 716.788 783.2C716.788 776.133 718.721 769.733 722.588 764C726.588 758.133 732.054 753.533 738.988 750.2C745.921 746.733 753.721 745 762.388 745C769.988 745 777.454 746.533 784.788 749.6C792.121 752.533 798.454 756.667 803.788 762L789.988 779.4C785.454 775.8 780.988 773.133 776.588 771.4C772.188 769.667 767.454 768.8 762.388 768.8C756.921 768.8 752.588 769.933 749.388 772.2C746.188 774.467 744.588 777.6 744.588 781.6C744.588 784.4 745.388 786.733 746.988 788.6C748.721 790.467 750.788 792 753.188 793.2C755.721 794.4 759.588 796.067 764.788 798.2L781.588 805C789.988 808.467 796.454 813.067 800.988 818.8C805.521 824.4 807.788 831.6 807.788 840.4C807.788 847.733 805.854 854.467 801.988 860.6C798.121 866.6 792.521 871.4 785.188 875C777.854 878.6 769.254 880.4 759.388 880.4ZM952.233 770.4H915.833V747.4H1016.23V770.4H979.633V878H952.233V770.4ZM1189.97 845.4H1148.97L1140.17 878H1112.17L1153.77 747.4H1186.37L1227.77 878H1198.77L1189.97 845.4ZM1184.37 824.2L1180.77 810.8C1179.17 804.933 1176.77 795.733 1173.57 783.2L1169.77 768.4H1168.97C1164.97 785.6 1161.44 799.733 1158.37 810.8L1154.77 824.2H1184.37ZM1342.64 747.4H1370.04V855H1422.44V878H1342.64V747.4Z" fill="#F4F4F4"/>
<path d="M320.659 89.4H279.659L270.859 122H242.859L284.459 -8.60001H317.059L358.459 122H329.459L320.659 89.4ZM315.059 68.2L311.459 54.8C309.859 48.9333 307.459 39.7333 304.259 27.2L300.459 12.4H299.659C295.659 29.6 292.126 43.7333 289.059 54.8L285.459 68.2H315.059ZM473.331 -8.60001H517.131C548.865 -8.60001 564.731 2.19999 564.731 23.8C564.731 29.9333 563.131 35.6667 559.931 41C556.731 46.3333 552.465 50 547.131 52V52.8C554.465 54.6667 560.331 58.2 564.731 63.4C569.131 68.4667 571.331 75.2 571.331 83.6C571.331 96.2667 566.665 105.867 557.331 112.4C547.998 118.8 535.798 122 520.731 122H473.331V-8.60001ZM515.531 44.2C523.131 44.2 528.731 42.8 532.331 40C536.065 37.0667 537.931 33 537.931 27.8C537.931 22.4667 536.131 18.6 532.531 16.2C528.931 13.8 523.331 12.6 515.731 12.6H500.731V44.2H515.531ZM518.331 100.8C535.798 100.8 544.531 94.4667 544.531 81.8C544.531 75.8 542.331 71.4667 537.931 68.8C533.665 66 527.131 64.6 518.331 64.6H500.731V100.8H518.331ZM746.239 124.4C734.639 124.4 724.372 121.667 715.439 116.2C706.639 110.733 699.772 102.867 694.839 92.6C689.906 82.2 687.439 70.0667 687.439 56.2C687.439 42.2 689.906 30.2 694.839 20.2C699.772 10.0667 706.639 2.33333 715.439 -3C724.372 -8.33334 734.639 -11 746.239 -11C757.839 -11 768.039 -8.33334 776.839 -3C785.772 2.33333 792.639 10.0667 797.439 20.2C802.372 30.3333 804.839 42.3333 804.839 56.2C804.839 70.0667 802.372 82.2 797.439 92.6C792.639 102.867 785.772 110.733 776.839 116.2C768.039 121.667 757.839 124.4 746.239 124.4ZM746.239 100.6C755.572 100.6 762.972 96.6 768.439 88.6C774.039 80.6 776.839 69.8 776.839 56.2C776.839 42.7333 774.039 32.1333 768.439 24.4C762.972 16.6667 755.572 12.8 746.239 12.8C736.772 12.8 729.306 16.6667 723.839 24.4C718.372 32 715.639 42.6 715.639 56.2C715.639 69.8 718.372 80.6 723.839 88.6C729.439 96.6 736.906 100.6 746.239 100.6ZM980.572 124.4C963.905 124.4 951.172 119.4 942.372 109.4C933.705 99.4 929.372 83.8 929.372 62.6V-8.60001H956.772V65.2C956.772 77.8667 958.772 86.9333 962.772 92.4C966.772 97.8667 972.705 100.6 980.572 100.6C988.572 100.6 994.639 97.8667 998.772 92.4C1002.91 86.9333 1004.97 77.8667 1004.97 65.2V-8.60001H1031.37V62.6C1031.37 83.8 1027.04 99.4 1018.37 109.4C1009.84 119.4 997.239 124.4 980.572 124.4ZM1188.19 14.4H1151.79V-8.60001H1252.19V14.4H1215.59V122H1188.19V14.4Z" fill="#F4F4F4"/>
</svg>
