<svg width="42" height="37" viewBox="0 0 42 37" fill="none" xmlns="http://www.w3.org/2000/svg">
<path d="M9.73193 37H0.758789V10.9985H9.73193V37ZM0.529297 4.52686C0.529297 3.1805 0.904134 2.17839 1.65381 1.52051C2.40348 0.86263 3.61214 0.533691 5.27979 0.533691C6.94743 0.533691 8.16374 0.87028 8.92871 1.54346C9.69368 2.21663 10.0762 3.2111 10.0762 4.52686C10.0762 7.15837 8.47738 8.47412 5.27979 8.47412C2.11279 8.47412 0.529297 7.15837 0.529297 4.52686ZM32.4058 37V22.8174C32.4058 21.0885 32.1533 19.7881 31.6484 18.916C31.1589 18.0286 30.3633 17.585 29.2617 17.585C27.7471 17.585 26.6532 18.1893 25.98 19.3979C25.3068 20.6066 24.9702 22.6797 24.9702 25.6172V37H15.9971V10.9985H22.7671L23.8916 14.2114H24.4194C25.1844 12.9875 26.2401 12.0695 27.5864 11.4575C28.9481 10.8455 30.5086 10.5396 32.2681 10.5396C35.1444 10.5396 37.3781 11.3734 38.9692 13.041C40.5757 14.7087 41.3789 17.0571 41.3789 20.0864V37H32.4058Z" fill="#FFAA5B"/>
</svg>
