<svg width="1500" height="903" viewBox="0 0 1500 903" fill="none" xmlns="http://www.w3.org/2000/svg">
<rect x="1200" width="300" height="903" fill="#75909C"/>
<path d="M1374.81 133.924H1329V109.714L1459.14 109.714V152.104C1459.14 160.804 1458.12 168.334 1456.08 174.694C1454.04 181.054 1451.19 186.304 1447.53 190.444C1443.87 194.584 1439.49 197.644 1434.39 199.624C1429.29 201.604 1423.71 202.594 1417.65 202.594C1411.35 202.594 1405.56 201.544 1400.28 199.444C1395.06 197.344 1390.56 194.194 1386.78 189.994C1383 185.794 1380.06 180.544 1377.96 174.244C1375.86 167.944 1374.81 160.564 1374.81 152.104V133.924ZM1393.71 133.924V152.104C1393.71 156.544 1394.25 160.414 1395.33 163.714C1396.47 167.014 1398.06 169.744 1400.1 171.904C1402.2 174.064 1404.72 175.684 1407.66 176.764C1410.66 177.844 1413.99 178.384 1417.65 178.384C1421.13 178.384 1424.28 177.844 1427.1 176.764C1429.92 175.684 1432.32 174.064 1434.3 171.904C1436.28 169.744 1437.78 167.014 1438.8 163.714C1439.88 160.414 1440.42 156.544 1440.42 152.104V133.924H1393.71ZM1329 349.204V324.814H1385.88V263.794H1329V239.404H1459.14V263.794H1403.16V324.814H1459.14V349.204H1329ZM1394.07 518.288C1384.53 518.288 1375.68 516.698 1367.52 513.518C1359.42 510.338 1352.4 505.868 1346.46 500.108C1340.52 494.348 1335.87 487.418 1332.51 479.318C1329.21 471.218 1327.56 462.248 1327.56 452.408C1327.56 442.568 1329.21 433.568 1332.51 425.408C1335.87 417.308 1340.52 410.348 1346.46 404.528C1352.4 398.768 1359.42 394.298 1367.52 391.118C1375.68 387.938 1384.53 386.348 1394.07 386.348C1403.61 386.348 1412.43 387.938 1420.53 391.118C1428.69 394.298 1435.74 398.768 1441.68 404.528C1447.62 410.348 1452.24 417.308 1455.54 425.408C1458.9 433.568 1460.58 442.568 1460.58 452.408C1460.58 462.248 1458.9 471.218 1455.54 479.318C1452.18 487.418 1447.53 494.348 1441.59 500.108C1435.71 505.868 1428.69 510.338 1420.53 513.518C1412.43 516.698 1403.61 518.288 1394.07 518.288ZM1394.07 493.448C1401.21 493.448 1407.6 492.488 1413.24 490.568C1418.94 488.708 1423.77 486.008 1427.73 482.468C1431.69 478.928 1434.72 474.608 1436.82 469.508C1438.92 464.468 1439.97 458.768 1439.97 452.408C1439.97 446.048 1438.92 440.318 1436.82 435.218C1434.72 430.118 1431.69 425.768 1427.73 422.168C1423.77 418.628 1418.94 415.898 1413.24 413.978C1407.6 412.058 1401.21 411.098 1394.07 411.098C1386.93 411.098 1380.51 412.058 1374.81 413.978C1369.17 415.898 1364.37 418.628 1360.41 422.168C1356.51 425.768 1353.51 430.118 1351.41 435.218C1349.31 440.318 1348.26 446.048 1348.26 452.408C1348.26 458.768 1349.31 464.468 1351.41 469.508C1353.51 474.608 1356.51 478.928 1360.41 482.468C1364.37 486.008 1369.17 488.708 1374.81 490.568C1380.51 492.488 1386.93 493.448 1394.07 493.448ZM1459.14 640.102H1439.25V600.952H1329V576.742H1439.25V537.412H1459.14V640.102ZM1394.07 791.241C1384.53 791.241 1375.68 789.651 1367.52 786.471C1359.42 783.291 1352.4 778.821 1346.46 773.061C1340.52 767.301 1335.87 760.371 1332.51 752.271C1329.21 744.171 1327.56 735.201 1327.56 725.361C1327.56 715.521 1329.21 706.521 1332.51 698.361C1335.87 690.261 1340.52 683.301 1346.46 677.481C1352.4 671.721 1359.42 667.251 1367.52 664.071C1375.68 660.891 1384.53 659.301 1394.07 659.301C1403.61 659.301 1412.43 660.891 1420.53 664.071C1428.69 667.251 1435.74 671.721 1441.68 677.481C1447.62 683.301 1452.24 690.261 1455.54 698.361C1458.9 706.521 1460.58 715.521 1460.58 725.361C1460.58 735.201 1458.9 744.171 1455.54 752.271C1452.18 760.371 1447.53 767.301 1441.59 773.061C1435.71 778.821 1428.69 783.291 1420.53 786.471C1412.43 789.651 1403.61 791.241 1394.07 791.241ZM1394.07 766.401C1401.21 766.401 1407.6 765.441 1413.24 763.521C1418.94 761.661 1423.77 758.961 1427.73 755.421C1431.69 751.881 1434.72 747.561 1436.82 742.461C1438.92 737.421 1439.97 731.721 1439.97 725.361C1439.97 719.001 1438.92 713.271 1436.82 708.171C1434.72 703.071 1431.69 698.721 1427.73 695.121C1423.77 691.581 1418.94 688.851 1413.24 686.931C1407.6 685.011 1401.21 684.051 1394.07 684.051C1386.93 684.051 1380.51 685.011 1374.81 686.931C1369.17 688.851 1364.37 691.581 1360.41 695.121C1356.51 698.721 1353.51 703.071 1351.41 708.171C1349.31 713.271 1348.26 719.001 1348.26 725.361C1348.26 731.721 1349.31 737.421 1351.41 742.461C1353.51 747.561 1356.51 751.881 1360.41 755.421C1364.37 758.961 1369.17 761.661 1374.81 763.521C1380.51 765.441 1386.93 766.401 1394.07 766.401Z" fill="#F3E7C7"/>
<path d="M1217.82 103.326C1217.82 108.786 1218.3 113.526 1219.26 117.546C1220.28 121.626 1221.66 125.496 1223.4 129.156L1247.07 129.156V112.866C1247.07 111.306 1247.49 110.076 1248.33 109.176C1249.23 108.276 1250.31 107.826 1251.57 107.826H1265.25V151.116H1212.6C1210.2 147.816 1208.1 144.366 1206.3 140.766C1204.56 137.226 1203.12 133.416 1201.98 129.336C1200.84 125.316 1200 120.996 1199.46 116.376C1198.86 111.756 1198.56 106.776 1198.56 101.436C1198.56 91.9558 1200.21 83.2258 1203.51 75.2458C1206.81 67.2658 1211.4 60.3658 1217.28 54.5458C1223.16 48.7258 1230.18 44.1658 1238.34 40.8658C1246.5 37.6258 1255.41 36.0058 1265.07 36.0058C1274.85 36.0058 1283.82 37.5958 1291.98 40.7758C1300.14 43.9558 1307.16 48.4558 1313.04 54.2758C1318.92 60.1558 1323.48 67.2658 1326.72 75.6058C1329.96 83.9458 1331.58 93.3058 1331.58 103.686C1331.58 114.306 1329.99 123.486 1326.81 131.226C1323.69 139.026 1319.61 145.626 1314.57 151.026L1303.59 144.006C1301.37 142.626 1300.26 140.796 1300.26 138.516C1300.26 137.076 1300.74 135.606 1301.7 134.106C1302.84 132.186 1303.98 130.206 1305.12 128.166C1306.26 126.186 1307.25 123.966 1308.09 121.506C1308.93 119.106 1309.62 116.376 1310.16 113.316C1310.7 110.316 1310.97 106.836 1310.97 102.876C1310.97 96.4558 1309.89 90.6358 1307.73 85.4158C1305.57 80.2558 1302.48 75.8458 1298.46 72.1858C1294.44 68.5258 1289.61 65.7058 1283.97 63.7258C1278.33 61.7458 1272.03 60.7558 1265.07 60.7558C1257.57 60.7558 1250.88 61.8058 1245 63.9058C1239.18 66.0058 1234.26 68.9458 1230.24 72.7258C1226.22 76.5058 1223.13 81.0058 1220.97 86.2258C1218.87 91.4458 1217.82 97.1458 1217.82 103.326ZM1250.85 216.664H1200V192.454L1330.14 192.454V232.144C1330.14 241.024 1329.21 248.614 1327.35 254.914C1325.55 261.274 1323 266.464 1319.7 270.484C1316.4 274.564 1312.44 277.534 1307.82 279.394C1303.26 281.314 1298.22 282.274 1292.7 282.274C1288.32 282.274 1284.18 281.614 1280.28 280.294C1276.38 279.034 1272.84 277.174 1269.66 274.714C1266.48 272.314 1263.69 269.314 1261.29 265.714C1258.89 262.174 1256.97 258.124 1255.53 253.564C1253.79 256.624 1251.3 259.264 1248.06 261.484L1200 294.064V272.284C1200 270.184 1200.42 268.384 1201.26 266.884C1202.1 265.444 1203.3 264.214 1204.86 263.194L1246.53 235.834C1248.09 234.814 1249.2 233.674 1249.86 232.414C1250.52 231.214 1250.85 229.414 1250.85 227.014V216.664ZM1268.22 216.664V231.784C1268.22 236.344 1268.79 240.304 1269.93 243.664C1271.07 247.084 1272.63 249.874 1274.61 252.034C1276.65 254.254 1279.05 255.904 1281.81 256.984C1284.57 258.064 1287.6 258.604 1290.9 258.604C1297.5 258.604 1302.57 256.414 1306.11 252.034C1309.65 247.714 1311.42 241.084 1311.42 232.144V216.664H1268.22ZM1200 441.983V423.263C1200 421.163 1200.51 419.423 1201.53 418.043C1202.61 416.723 1203.93 415.763 1205.49 415.163L1232.04 405.443V351.533L1205.49 341.813C1204.11 341.333 1202.85 340.373 1201.71 338.933C1200.57 337.553 1200 335.843 1200 333.803V314.993L1330.14 366.113V390.863L1200 441.983ZM1249.14 357.743V399.233L1292.43 383.393C1294.35 382.673 1296.6 381.863 1299.18 380.963C1301.82 380.123 1304.67 379.283 1307.73 378.443C1304.67 377.603 1301.82 376.763 1299.18 375.923C1296.54 375.143 1294.23 374.363 1292.25 373.583L1249.14 357.743ZM1245.81 498.406H1200V474.196H1330.14V516.586C1330.14 525.286 1329.12 532.816 1327.08 539.176C1325.04 545.536 1322.19 550.786 1318.53 554.926C1314.87 559.066 1310.49 562.126 1305.39 564.106C1300.29 566.086 1294.71 567.076 1288.65 567.076C1282.35 567.076 1276.56 566.026 1271.28 563.926C1266.06 561.826 1261.56 558.676 1257.78 554.476C1254 550.276 1251.06 545.026 1248.96 538.726C1246.86 532.426 1245.81 525.046 1245.81 516.586V498.406ZM1264.71 498.406V516.586C1264.71 521.026 1265.25 524.896 1266.33 528.196C1267.47 531.496 1269.06 534.226 1271.1 536.386C1273.2 538.546 1275.72 540.166 1278.66 541.246C1281.66 542.326 1284.99 542.866 1288.65 542.866C1292.13 542.866 1295.28 542.326 1298.1 541.246C1300.92 540.166 1303.32 538.546 1305.3 536.386C1307.28 534.226 1308.78 531.496 1309.8 528.196C1310.88 524.896 1311.42 521.026 1311.42 516.586V498.406H1264.71ZM1200 713.686V689.296H1256.88V628.276H1200V603.886H1330.14V628.276H1274.16V689.296H1330.14V713.686H1200ZM1250.58 815.811H1200V791.601H1250.58L1330.14 744.171V765.501C1330.14 767.601 1329.63 769.251 1328.61 770.451C1327.59 771.711 1326.3 772.761 1324.74 773.601L1281.27 797.451C1278.69 798.831 1276.23 800.031 1273.89 801.051C1271.61 802.071 1269.36 803.001 1267.14 803.841C1269.42 804.621 1271.7 805.491 1273.98 806.451C1276.32 807.471 1278.75 808.671 1281.27 810.051L1324.74 833.721C1326.06 834.381 1327.29 835.371 1328.43 836.691C1329.57 838.011 1330.14 839.691 1330.14 841.731V863.151L1250.58 815.811Z" fill="#F4F4F4"/>
</svg>
