<svg width="813" height="191" viewBox="0 0 813 191" fill="none" xmlns="http://www.w3.org/2000/svg">
<path d="M75.5639 2.10999L103.904 2.10999C114.131 2.10999 122.234 4.23333 128.214 8.48C134.281 12.64 137.314 19.4867 137.314 29.02C137.314 38.38 134.237 45.4433 128.084 50.21C121.931 54.9767 114.044 57.36 104.424 57.36H93.3739V87H75.5639V2.10999ZM103.254 43.19C114.347 43.19 119.894 38.4667 119.894 29.02C119.894 24.5133 118.464 21.2633 115.604 19.27C112.831 17.2767 108.541 16.28 102.734 16.28H93.3739V43.19H103.254ZM211.518 87L194.618 55.54H183.308V87H165.498V2.10999H195.398C205.278 2.10999 213.121 4.14666 218.928 8.22C224.734 12.2067 227.638 18.8367 227.638 28.11C227.638 34.1767 226.251 39.29 223.478 43.45C220.704 47.5233 216.848 50.5567 211.908 52.55L231.538 87H211.518ZM183.308 41.37H193.838C199.211 41.37 203.284 40.2867 206.058 38.12C208.831 35.8667 210.218 32.53 210.218 28.11C210.218 23.8633 208.874 20.83 206.188 19.01C203.501 17.19 199.384 16.28 193.838 16.28H183.308V41.37ZM291.395 88.56C283.855 88.56 277.182 86.7833 271.375 83.23C265.655 79.6767 261.192 74.5633 257.985 67.89C254.779 61.13 253.175 53.2433 253.175 44.23C253.175 35.13 254.779 27.33 257.985 20.83C261.192 14.2433 265.655 9.21666 271.375 5.75C277.182 2.28333 283.855 0.549997 291.395 0.549997C298.935 0.549997 305.565 2.28333 311.285 5.75C317.092 9.21666 321.555 14.2433 324.675 20.83C327.882 27.4167 329.485 35.2167 329.485 44.23C329.485 53.2433 327.882 61.13 324.675 67.89C321.555 74.5633 317.092 79.6767 311.285 83.23C305.565 86.7833 298.935 88.56 291.395 88.56ZM291.395 73.09C297.462 73.09 302.272 70.49 305.825 65.29C309.465 60.09 311.285 53.07 311.285 44.23C311.285 35.4767 309.465 28.5867 305.825 23.56C302.272 18.5333 297.462 16.02 291.395 16.02C285.242 16.02 280.389 18.5333 276.835 23.56C273.282 28.5 271.505 35.39 271.505 44.23C271.505 53.07 273.282 60.09 276.835 65.29C280.475 70.49 285.329 73.09 291.395 73.09ZM370.943 88.56C364.703 88.56 359.417 87.3467 355.083 84.92C350.75 82.4067 347.153 78.5933 344.293 73.48L356.383 64.51C359.503 70.23 363.62 73.09 368.733 73.09C372.46 73.09 375.233 71.92 377.053 69.58C378.873 67.24 379.783 63.2967 379.783 57.75V2.10999H397.593V59.31C397.593 67.89 395.34 74.91 390.833 80.37C386.327 85.83 379.697 88.56 370.943 88.56ZM430.601 2.10999L483.121 2.10999V17.06H448.411V35.65H477.921V50.6H448.411V72.05H484.421V87H430.601V2.10999ZM549.411 88.56C542.131 88.56 535.501 86.87 529.521 83.49C523.628 80.11 518.948 75.17 515.481 68.67C512.014 62.0833 510.281 54.1967 510.281 45.01C510.281 35.91 512.058 28.0233 515.611 21.35C519.164 14.59 523.974 9.43333 530.041 5.88C536.108 2.32666 542.738 0.549997 549.931 0.549997C555.044 0.549997 559.724 1.59 563.971 3.67C568.304 5.66333 572.031 8.26333 575.151 11.47L565.661 22.91C563.321 20.6567 560.894 18.9667 558.381 17.84C555.954 16.6267 553.268 16.02 550.321 16.02C546.161 16.02 542.434 17.19 539.141 19.53C535.848 21.7833 533.248 25.0767 531.341 29.41C529.521 33.6567 528.611 38.64 528.611 44.36C528.611 53.2867 530.518 60.3067 534.331 65.42C538.231 70.5333 543.474 73.09 550.061 73.09C556.561 73.09 562.238 70.36 567.091 64.9L576.581 76.08C569.474 84.4 560.418 88.56 549.411 88.56ZM617.844 17.06H594.184V2.10999L659.444 2.10999V17.06H635.654V87H617.844V17.06ZM707.858 88.56C702.138 88.56 696.548 87.52 691.088 85.44C685.628 83.2733 680.818 80.1967 676.658 76.21L686.928 63.99C690.048 66.7633 693.471 68.9733 697.198 70.62C701.011 72.2667 704.694 73.09 708.248 73.09C712.408 73.09 715.571 72.31 717.738 70.75C719.991 69.1033 721.118 66.85 721.118 63.99C721.118 62.17 720.598 60.6533 719.558 59.44C718.604 58.2267 717.348 57.23 715.788 56.45C714.314 55.67 711.888 54.5867 708.508 53.2L697.328 48.39C692.301 46.31 688.184 43.4067 684.978 39.68C681.771 35.8667 680.168 31.1 680.168 25.38C680.168 20.7867 681.424 16.6267 683.938 12.9C686.538 9.08666 690.091 6.09666 694.598 3.92999C699.104 1.67666 704.174 0.549997 709.808 0.549997C714.748 0.549997 719.601 1.54666 724.368 3.54C729.134 5.44667 733.251 8.13333 736.718 11.6L727.748 22.91C724.801 20.57 721.898 18.8367 719.038 17.71C716.178 16.5833 713.101 16.02 709.808 16.02C706.254 16.02 703.438 16.7567 701.358 18.23C699.278 19.7033 698.238 21.74 698.238 24.34C698.238 26.16 698.758 27.6767 699.798 28.89C700.924 30.1033 702.268 31.1 703.828 31.88C705.474 32.66 707.988 33.7433 711.368 35.13L722.288 39.55C727.748 41.8033 731.951 44.7933 734.898 48.52C737.844 52.16 739.318 56.84 739.318 62.56C739.318 67.3267 738.061 71.7033 735.548 75.69C733.034 79.59 729.394 82.71 724.628 85.05C719.861 87.39 714.271 88.56 707.858 88.56Z" fill="#F3E7C7"/>
<path d="M397.907 101.34H374.897V88.73H397.907V64.55H411.037V88.73H434.047V101.34H411.037V125.52H397.907V101.34Z" fill="#F57600"/>
<path d="M0.483868 104.11L53.0039 104.11V119.06L18.2939 119.06V137.65H47.8039V152.6H18.2939V174.05L54.3039 174.05V189L0.483868 189V104.11ZM99.2737 145.32L77.0437 104.11H96.9337L104.994 121.14C105.774 122.7 107.117 125.56 109.024 129.72L111.234 134.53H111.754C112.967 131.15 114.787 126.687 117.214 121.14L124.754 104.11H143.734L121.504 146.1L145.164 189H125.274L116.304 170.8C114.657 167.593 112.49 162.957 109.804 156.89H109.284C108.244 159.403 106.25 164.04 103.304 170.8L94.5937 189H75.6137L99.2737 145.32ZM169.941 104.11H198.281C208.508 104.11 216.611 106.233 222.591 110.48C228.658 114.64 231.691 121.487 231.691 131.02C231.691 140.38 228.614 147.443 222.461 152.21C216.308 156.977 208.421 159.36 198.801 159.36H187.751V189H169.941V104.11ZM197.631 145.19C208.724 145.19 214.271 140.467 214.271 131.02C214.271 126.513 212.841 123.263 209.981 121.27C207.208 119.277 202.918 118.28 197.111 118.28H187.751V145.19H197.631ZM259.874 104.11L312.394 104.11V119.06L277.684 119.06V137.65L307.194 137.65V152.6L277.684 152.6V174.05L313.694 174.05V189L259.874 189V104.11ZM389.734 189L372.834 157.54H361.524V189H343.714V104.11H373.614C383.494 104.11 391.338 106.147 397.144 110.22C402.951 114.207 405.854 120.837 405.854 130.11C405.854 136.177 404.468 141.29 401.694 145.45C398.921 149.523 395.064 152.557 390.124 154.55L409.754 189H389.734ZM361.524 143.37H372.054C377.428 143.37 381.501 142.287 384.274 140.12C387.048 137.867 388.434 134.53 388.434 130.11C388.434 125.863 387.091 122.83 384.404 121.01C381.718 119.19 377.601 118.28 372.054 118.28H361.524V143.37ZM435.552 104.11H453.362V189H435.552V104.11ZM486.892 104.11H539.412V119.06H504.702V137.65H534.212V152.6H504.702V174.05H540.712V189H486.892V104.11ZM570.732 104.11H589.062L612.592 148.18L621.042 166.64H621.562C621.475 165.167 621.259 162.87 620.912 159.75C619.872 149.697 619.352 141.897 619.352 136.35V104.11H636.252V189H618.052L594.522 144.93L585.942 126.47H585.422C585.509 127.51 585.725 129.46 586.072 132.32C586.505 136.307 586.895 140.51 587.242 144.93C587.589 149.263 587.762 153.12 587.762 156.5V189H570.732V104.11ZM704.776 190.56C697.496 190.56 690.866 188.87 684.886 185.49C678.993 182.11 674.313 177.17 670.846 170.67C667.379 164.083 665.646 156.197 665.646 147.01C665.646 137.91 667.423 130.023 670.976 123.35C674.529 116.59 679.339 111.433 685.406 107.88C691.473 104.327 698.103 102.55 705.296 102.55C710.409 102.55 715.089 103.59 719.336 105.67C723.669 107.663 727.396 110.263 730.516 113.47L721.026 124.91C718.686 122.657 716.259 120.967 713.746 119.84C711.319 118.627 708.633 118.02 705.686 118.02C701.526 118.02 697.799 119.19 694.506 121.53C691.213 123.783 688.613 127.077 686.706 131.41C684.886 135.657 683.976 140.64 683.976 146.36C683.976 155.287 685.883 162.307 689.696 167.42C693.596 172.533 698.839 175.09 705.426 175.09C711.926 175.09 717.603 172.36 722.456 166.9L731.946 178.08C724.839 186.4 715.783 190.56 704.776 190.56ZM758.216 104.11H810.736V119.06H776.026V137.65H805.536V152.6H776.026V174.05H812.036V189H758.216V104.11Z" fill="#F4F4F4"/>
</svg>
