<svg width="1500" height="302" viewBox="0 0 1500 302" fill="none" xmlns="http://www.w3.org/2000/svg">
<rect x="1500" width="300" height="1500" transform="rotate(90 1500 0)" fill="#75909C"/>
<path d="M414.564 64.11L442.904 64.11C453.131 64.11 461.234 66.2333 467.214 70.48C473.281 74.64 476.314 81.4867 476.314 91.02C476.314 100.38 473.237 107.443 467.084 112.21C460.931 116.977 453.044 119.36 443.424 119.36H432.374V149H414.564V64.11ZM442.254 105.19C453.347 105.19 458.894 100.467 458.894 91.02C458.894 86.5133 457.464 83.2633 454.604 81.27C451.831 79.2767 447.541 78.28 441.734 78.28H432.374V105.19H442.254ZM550.518 149L533.618 117.54H522.308V149H504.498V64.11H534.398C544.278 64.11 552.121 66.1467 557.928 70.22C563.734 74.2067 566.638 80.8367 566.638 90.11C566.638 96.1767 565.251 101.29 562.478 105.45C559.704 109.523 555.848 112.557 550.908 114.55L570.538 149H550.518ZM522.308 103.37H532.838C538.211 103.37 542.284 102.287 545.058 100.12C547.831 97.8667 549.218 94.53 549.218 90.11C549.218 85.8633 547.874 82.83 545.188 81.01C542.501 79.19 538.384 78.28 532.838 78.28H522.308V103.37ZM630.395 150.56C622.855 150.56 616.182 148.783 610.375 145.23C604.655 141.677 600.192 136.563 596.985 129.89C593.779 123.13 592.175 115.243 592.175 106.23C592.175 97.13 593.779 89.33 596.985 82.83C600.192 76.2433 604.655 71.2167 610.375 67.75C616.182 64.2833 622.855 62.55 630.395 62.55C637.935 62.55 644.565 64.2833 650.285 67.75C656.092 71.2167 660.555 76.2433 663.675 82.83C666.882 89.4167 668.485 97.2167 668.485 106.23C668.485 115.243 666.882 123.13 663.675 129.89C660.555 136.563 656.092 141.677 650.285 145.23C644.565 148.783 637.935 150.56 630.395 150.56ZM630.395 135.09C636.462 135.09 641.272 132.49 644.825 127.29C648.465 122.09 650.285 115.07 650.285 106.23C650.285 97.4767 648.465 90.5867 644.825 85.56C641.272 80.5333 636.462 78.02 630.395 78.02C624.242 78.02 619.389 80.5333 615.835 85.56C612.282 90.5 610.505 97.39 610.505 106.23C610.505 115.07 612.282 122.09 615.835 127.29C619.475 132.49 624.329 135.09 630.395 135.09ZM709.943 150.56C703.703 150.56 698.417 149.347 694.083 146.92C689.75 144.407 686.153 140.593 683.293 135.48L695.383 126.51C698.503 132.23 702.62 135.09 707.733 135.09C711.46 135.09 714.233 133.92 716.053 131.58C717.873 129.24 718.783 125.297 718.783 119.75V64.11H736.593V121.31C736.593 129.89 734.34 136.91 729.833 142.37C725.327 147.83 718.697 150.56 709.943 150.56ZM769.601 64.11H822.121V79.06H787.411V97.65H816.921V112.6H787.411V134.05H823.421V149H769.601V64.11ZM888.411 150.56C881.131 150.56 874.501 148.87 868.521 145.49C862.628 142.11 857.948 137.17 854.481 130.67C851.014 124.083 849.281 116.197 849.281 107.01C849.281 97.91 851.058 90.0233 854.611 83.35C858.164 76.59 862.974 71.4333 869.041 67.88C875.108 64.3267 881.738 62.55 888.931 62.55C894.044 62.55 898.724 63.59 902.971 65.67C907.304 67.6633 911.031 70.2633 914.151 73.47L904.661 84.91C902.321 82.6567 899.894 80.9667 897.381 79.84C894.954 78.6267 892.268 78.02 889.321 78.02C885.161 78.02 881.434 79.19 878.141 81.53C874.848 83.7833 872.248 87.0767 870.341 91.41C868.521 95.6567 867.611 100.64 867.611 106.36C867.611 115.287 869.518 122.307 873.331 127.42C877.231 132.533 882.474 135.09 889.061 135.09C895.561 135.09 901.238 132.36 906.091 126.9L915.581 138.08C908.474 146.4 899.418 150.56 888.411 150.56ZM956.844 79.06H933.184V64.11L998.444 64.11V79.06H974.654V149H956.844V79.06ZM1046.86 150.56C1041.14 150.56 1035.55 149.52 1030.09 147.44C1024.63 145.273 1019.82 142.197 1015.66 138.21L1025.93 125.99C1029.05 128.763 1032.47 130.973 1036.2 132.62C1040.01 134.267 1043.69 135.09 1047.25 135.09C1051.41 135.09 1054.57 134.31 1056.74 132.75C1058.99 131.103 1060.12 128.85 1060.12 125.99C1060.12 124.17 1059.6 122.653 1058.56 121.44C1057.6 120.227 1056.35 119.23 1054.79 118.45C1053.31 117.67 1050.89 116.587 1047.51 115.2L1036.33 110.39C1031.3 108.31 1027.18 105.407 1023.98 101.68C1020.77 97.8667 1019.17 93.1 1019.17 87.38C1019.17 82.7867 1020.42 78.6267 1022.94 74.9C1025.54 71.0867 1029.09 68.0967 1033.6 65.93C1038.1 63.6767 1043.17 62.55 1048.81 62.55C1053.75 62.55 1058.6 63.5467 1063.37 65.54C1068.13 67.4467 1072.25 70.1333 1075.72 73.6L1066.75 84.91C1063.8 82.57 1060.9 80.8367 1058.04 79.71C1055.18 78.5833 1052.1 78.02 1048.81 78.02C1045.25 78.02 1042.44 78.7567 1040.36 80.23C1038.28 81.7033 1037.24 83.74 1037.24 86.34C1037.24 88.16 1037.76 89.6767 1038.8 90.89C1039.92 92.1033 1041.27 93.1 1042.83 93.88C1044.47 94.66 1046.99 95.7433 1050.37 97.13L1061.29 101.55C1066.75 103.803 1070.95 106.793 1073.9 110.52C1076.84 114.16 1078.32 118.84 1078.32 124.56C1078.32 129.327 1077.06 133.703 1074.55 137.69C1072.03 141.59 1068.39 144.71 1063.63 147.05C1058.86 149.39 1053.27 150.56 1046.86 150.56Z" fill="#F3E7C7"/>
<path d="M736.907 163.34H713.897V150.73H736.907V126.55H750.037V150.73H773.047V163.34H750.037V187.52H736.907V163.34Z" fill="#F57600"/>
<path d="M339.484 166.11L392.004 166.11V181.06L357.294 181.06V199.65H386.804V214.6H357.294V236.05L393.304 236.05V251L339.484 251V166.11ZM438.274 207.32L416.044 166.11H435.934L443.994 183.14C444.774 184.7 446.117 187.56 448.024 191.72L450.234 196.53H450.754C451.967 193.15 453.787 188.687 456.214 183.14L463.754 166.11H482.734L460.504 208.1L484.164 251H464.274L455.304 232.8C453.657 229.593 451.49 224.957 448.804 218.89H448.284C447.244 221.403 445.25 226.04 442.304 232.8L433.594 251H414.614L438.274 207.32ZM508.941 166.11H537.281C547.508 166.11 555.611 168.233 561.591 172.48C567.658 176.64 570.691 183.487 570.691 193.02C570.691 202.38 567.614 209.443 561.461 214.21C555.308 218.977 547.421 221.36 537.801 221.36H526.751V251H508.941V166.11ZM536.631 207.19C547.724 207.19 553.271 202.467 553.271 193.02C553.271 188.513 551.841 185.263 548.981 183.27C546.208 181.277 541.918 180.28 536.111 180.28H526.751V207.19H536.631ZM598.874 166.11L651.394 166.11V181.06L616.684 181.06V199.65L646.194 199.65V214.6L616.684 214.6V236.05L652.694 236.05V251L598.874 251V166.11ZM728.734 251L711.834 219.54H700.524V251H682.714V166.11H712.614C722.494 166.11 730.338 168.147 736.144 172.22C741.951 176.207 744.854 182.837 744.854 192.11C744.854 198.177 743.468 203.29 740.694 207.45C737.921 211.523 734.064 214.557 729.124 216.55L748.754 251H728.734ZM700.524 205.37H711.054C716.428 205.37 720.501 204.287 723.274 202.12C726.048 199.867 727.434 196.53 727.434 192.11C727.434 187.863 726.091 184.83 723.404 183.01C720.718 181.19 716.601 180.28 711.054 180.28H700.524V205.37ZM774.552 166.11H792.362V251H774.552V166.11ZM825.892 166.11H878.412V181.06H843.702V199.65H873.212V214.6H843.702V236.05H879.712V251H825.892V166.11ZM909.732 166.11H928.062L951.592 210.18L960.042 228.64H960.562C960.475 227.167 960.259 224.87 959.912 221.75C958.872 211.697 958.352 203.897 958.352 198.35V166.11H975.252V251H957.052L933.522 206.93L924.942 188.47H924.422C924.509 189.51 924.725 191.46 925.072 194.32C925.505 198.307 925.895 202.51 926.242 206.93C926.589 211.263 926.762 215.12 926.762 218.5V251H909.732V166.11ZM1043.78 252.56C1036.5 252.56 1029.87 250.87 1023.89 247.49C1017.99 244.11 1013.31 239.17 1009.85 232.67C1006.38 226.083 1004.65 218.197 1004.65 209.01C1004.65 199.91 1006.42 192.023 1009.98 185.35C1013.53 178.59 1018.34 173.433 1024.41 169.88C1030.47 166.327 1037.1 164.55 1044.3 164.55C1049.41 164.55 1054.09 165.59 1058.34 167.67C1062.67 169.663 1066.4 172.263 1069.52 175.47L1060.03 186.91C1057.69 184.657 1055.26 182.967 1052.75 181.84C1050.32 180.627 1047.63 180.02 1044.69 180.02C1040.53 180.02 1036.8 181.19 1033.51 183.53C1030.21 185.783 1027.61 189.077 1025.71 193.41C1023.89 197.657 1022.98 202.64 1022.98 208.36C1022.98 217.287 1024.88 224.307 1028.7 229.42C1032.6 234.533 1037.84 237.09 1044.43 237.09C1050.93 237.09 1056.6 234.36 1061.46 228.9L1070.95 240.08C1063.84 248.4 1054.78 252.56 1043.78 252.56ZM1097.22 166.11H1149.74V181.06H1115.03V199.65H1144.54V214.6H1115.03V236.05H1151.04V251H1097.22V166.11Z" fill="#F4F4F4"/>
</svg>
