<svg xmlns="http://www.w3.org/2000/svg" width="47" height="47" fill="none" xmlns:v="https://vecta.io/nano"><path d="M12.232 42H3.259V15.999h8.973V42zM3.029 9.527c0-1.346.375-2.348 1.125-3.006s1.958-.987 3.626-.987 2.884.337 3.649 1.01 1.148 1.668 1.148 2.983c0 2.632-1.599 3.947-4.796 3.947-3.167 0-4.75-1.316-4.75-3.947zM34.906 42V27.817c0-1.729-.252-3.029-.757-3.901-.489-.887-1.285-1.331-2.387-1.331-1.515 0-2.609.604-3.282 1.813s-1.01 3.282-1.01 6.219V42h-8.973V15.999h6.77l1.125 3.213h.528a7.12 7.12 0 0 1 3.167-2.754c1.362-.612 2.922-.918 4.682-.918 2.876 0 5.11.834 6.701 2.501 1.606 1.668 2.41 4.016 2.41 7.045V42h-8.973z" fill="#1ea5ad"/></svg>