<svg xmlns="http://www.w3.org/2000/svg" width="45" height="44" fill="none" xmlns:v="https://vecta.io/nano"><path d="M9.935 27.881c1.89 3.376 6.595 4.722 8.711 4.973-1.181 1.085-1.476 2.361-1.476 2.864-3.396 1.356-5.611-.603-6.349-1.959s-4.429-3.466-4.725-2.261 1.476.301 2.658 2.863 2.067 3.014 3.396 4.22c1.063.965 3.79.402 5.02 0V42.5c0 2.291-2.264 1.457-3.396.754-1.969-.854-6.733-3.677-10.04-8.138-4.134-5.576-5.758-16.729 0-24.566S17.17 0 22.338 0s13.583 2.411 19.046 10.55 4.134 18.99 0 24.566-9.449 8.44-11.516 8.741-1.772-1.356-1.772-5.275c0-3.135-.788-5.124-1.181-5.727C36 31 35.762 27.419 36.5 23.5c.591-3.135-.825-6.922-1.908-7.977.945-3.135 0-5.325-.591-6.028-1.772 0-4.675 1.608-5.906 2.411-4.134-1.567-9.006-.653-10.926 0-1.181-1.688-4.725-2.311-6.349-2.411-1.063 2.291-.443 4.973 0 6.028-2.215 2.411-3.248 8.138-.886 12.358z" fill="#e76060"/></svg>