<svg width="111" height="864" viewBox="0 0 111 864" fill="none" xmlns="http://www.w3.org/2000/svg">
<path d="M78.8401 778.613C78.8401 777.973 78.9735 777.333 79.2401 776.693C79.4534 776.053 79.8534 775.44 80.4401 774.853L91.7201 764.133C97.8535 768.826 102.493 774.72 105.64 781.813C108.733 788.853 110.28 797.2 110.28 806.853C110.28 815.706 108.787 823.653 105.8 830.693C102.76 837.68 98.6001 843.626 93.3201 848.533C87.9868 853.386 81.6935 857.12 74.4401 859.733C67.1335 862.346 59.2135 863.653 50.6801 863.653C41.9868 863.653 34.0135 862.24 26.7601 859.413C19.4535 856.586 13.1601 852.613 7.88012 847.493C2.60012 842.373 -1.50655 836.24 -4.43989 829.093C-7.37322 821.946 -8.83988 814.08 -8.83988 805.493C-8.83988 801.12 -8.43988 797.013 -7.63989 793.173C-6.89322 789.28 -5.82656 785.653 -4.43989 782.293C-3.10655 778.933 -1.47988 775.84 0.440109 773.013C2.36011 770.186 4.44011 767.68 6.68011 765.493L18.9201 774.613C19.6668 775.2 20.3601 775.893 21.0001 776.693C21.5868 777.493 21.8801 778.613 21.8801 780.053C21.8801 781.013 21.6668 781.92 21.2401 782.773C20.8135 783.626 20.3068 784.533 19.7201 785.493C19.0801 786.453 18.4135 787.52 17.7201 788.693C16.9734 789.813 16.3068 791.173 15.7201 792.773C15.0801 794.32 14.5468 796.16 14.1201 798.293C13.6934 800.373 13.4801 802.826 13.4801 805.653C13.4801 810.133 14.3068 814.24 15.9601 817.973C17.6134 821.653 20.0401 824.853 23.2401 827.573C26.3868 830.24 30.2801 832.32 34.9201 833.813C39.5068 835.253 44.7601 835.973 50.6801 835.973C56.6535 835.973 61.9601 835.173 66.6001 833.573C71.2401 831.92 75.1601 829.706 78.3601 826.933C81.5068 824.106 83.9068 820.826 85.5601 817.093C87.2135 813.36 88.0401 809.36 88.0401 805.093C88.0401 802.64 87.9335 800.4 87.7201 798.373C87.4535 796.346 87.0535 794.453 86.5201 792.693C85.9335 790.933 85.1868 789.28 84.2801 787.733C83.3201 786.186 82.1201 784.613 80.6801 783.013C80.1468 782.373 79.7201 781.68 79.4001 780.933C79.0268 780.186 78.8401 779.413 78.8401 778.613ZM47.2401 682.409C47.2401 678.729 46.7868 675.609 45.8801 673.049C44.9201 670.436 43.6134 668.303 41.9601 666.649C40.3068 664.996 38.3868 663.796 36.2001 663.049C33.9601 662.303 31.5601 661.929 29.0001 661.929C23.8801 661.929 19.8801 663.609 17.0001 666.969C14.1201 670.276 12.6801 675.423 12.6801 682.409L12.6801 693.289L47.2401 693.289L47.2401 682.409ZM109 624.969L109 649.449C109 653.983 107.293 657.236 103.88 659.209L70.0401 678.569C68.6001 679.476 67.5601 680.489 66.9201 681.609C66.2268 682.729 65.8801 684.329 65.8801 686.409L65.8801 693.289L109 693.289L109 720.329L-7.55989 720.329L-7.55989 682.409C-7.55989 673.983 -6.67989 666.809 -4.91989 660.889C-3.21323 654.916 -0.813228 650.063 2.2801 646.329C5.37344 642.543 9.02678 639.796 13.2401 638.089C17.4534 636.383 22.0401 635.529 27.0001 635.529C30.7868 635.529 34.3601 636.036 37.7201 637.049C41.0801 638.063 44.2001 639.556 47.0801 641.529C49.9068 643.503 52.4401 645.956 54.6801 648.889C56.9201 651.769 58.7601 655.103 60.2001 658.889C61.1068 657.129 62.2534 655.476 63.6401 653.929C64.9734 652.383 66.5734 650.996 68.4401 649.769L109 624.969ZM64.6801 533.583L109 533.583L109 560.623L64.6801 560.623L-7.55989 602.863L-7.55989 579.023C-7.55989 576.676 -6.99989 574.836 -5.8799 573.503C-4.81323 572.116 -3.42656 570.97 -1.7199 570.063L32.2001 553.583C34.8668 552.196 37.3734 550.943 39.7201 549.823C42.0134 548.703 44.2801 547.716 46.5201 546.863C44.2268 546.063 41.9334 545.156 39.6401 544.143C37.2934 543.076 34.8134 541.85 32.2001 540.463L-1.7199 524.143C-2.41323 523.77 -3.10657 523.316 -3.7999 522.783C-4.49323 522.25 -5.10657 521.636 -5.6399 520.943C-6.22657 520.196 -6.6799 519.37 -6.9999 518.463C-7.37323 517.503 -7.55989 516.463 -7.55989 515.343L-7.5599 491.343L64.6801 533.583ZM16.1201 390.523C17.4001 391.323 18.3601 392.176 19.0001 393.083C19.6401 393.936 19.9601 395.056 19.9601 396.443C19.9601 397.67 19.5868 399.003 18.8401 400.443C18.0401 401.83 17.1601 403.43 16.2001 405.243C15.2401 407.003 14.3868 409.03 13.6401 411.323C12.8401 413.616 12.4401 416.23 12.4401 419.163C12.4401 424.23 13.5334 428.016 15.7201 430.523C17.8534 432.976 20.7601 434.203 24.4401 434.203C26.7868 434.203 28.7334 433.456 30.2801 431.963C31.8268 430.47 33.1601 428.523 34.2801 426.123C35.4001 423.67 36.4401 420.896 37.4001 417.803C38.3068 414.656 39.3468 411.456 40.5201 408.203C41.6401 404.95 42.9734 401.776 44.5201 398.683C46.0668 395.536 48.0401 392.763 50.4401 390.363C52.8401 387.91 55.7734 385.936 59.2401 384.443C62.6534 382.95 66.7868 382.203 71.6401 382.203C77.0268 382.203 82.0668 383.136 86.7601 385.003C91.4534 386.87 95.5601 389.59 99.0801 393.163C102.547 396.683 105.293 401.056 107.32 406.283C109.293 411.456 110.28 417.35 110.28 423.963C110.28 427.59 109.907 431.296 109.16 435.083C108.413 438.816 107.373 442.443 106.04 445.963C104.653 449.483 103.027 452.79 101.16 455.883C99.2934 458.976 97.2134 461.67 94.9201 463.963L82.2801 455.963C81.3734 455.323 80.6268 454.496 80.0401 453.483C79.4001 452.416 79.0801 451.27 79.0801 450.043C79.0801 448.443 79.5868 446.843 80.6001 445.243C81.6134 443.59 82.7334 441.75 83.9601 439.723C85.1868 437.643 86.3068 435.27 87.3201 432.603C88.3334 429.936 88.8401 426.79 88.8401 423.163C88.8401 418.256 87.7734 414.443 85.6401 411.723C83.4534 409.003 80.0134 407.643 75.3201 407.643C72.6001 407.643 70.3868 408.39 68.6801 409.883C66.9734 411.376 65.5601 413.35 64.4401 415.803C63.3201 418.203 62.3334 420.95 61.4801 424.043C60.6268 427.136 59.6934 430.31 58.6801 433.563C57.6134 436.816 56.3334 439.99 54.8401 443.083C53.2934 446.176 51.2934 448.95 48.8401 451.403C46.3334 453.803 43.2401 455.75 39.5601 457.243C35.8268 458.736 31.2401 459.483 25.8001 459.483C21.4268 459.483 17.1601 458.603 13.0001 456.843C8.8401 455.083 5.13343 452.496 1.8801 449.083C-1.37324 445.67 -3.9599 441.483 -5.87991 436.523C-7.85324 431.563 -8.8399 425.883 -8.8399 419.483C-8.8399 415.91 -8.54657 412.443 -7.9599 409.083C-7.42657 405.67 -6.5999 402.443 -5.47991 399.403C-4.41324 396.363 -3.10657 393.536 -1.55991 390.923C-0.0665724 388.256 1.64009 385.883 3.5601 383.803L16.1201 390.523ZM13.8801 250.569L13.8801 283.369L109 283.369L109 310.409L13.8801 310.409L13.8801 343.209L-7.5599 343.209L-7.55991 250.569L13.8801 250.569ZM64.4401 154.636L32.5201 165.436C30.4934 166.236 28.1201 167.089 25.4001 167.996C22.6268 168.902 19.6401 169.809 16.4401 170.716C19.6934 171.516 22.7068 172.369 25.4801 173.276C28.2534 174.182 30.6534 175.036 32.6801 175.836L64.4401 186.556L64.4401 154.636ZM109 111.676L109 132.636C109 134.982 108.467 136.876 107.4 138.316C106.28 139.756 104.867 140.849 103.16 141.596L82.8401 148.476L82.8401 192.796L103.16 199.676C104.653 200.262 106.013 201.329 107.24 202.876C108.413 204.369 109 206.236 109 208.476L109 229.596L-7.55991 184.476L-7.55991 156.796L109 111.676ZM87.4001 0.245584L109 0.245583L109 70.4856L-7.55991 70.4856L-7.55991 43.4456L87.4001 43.4456L87.4001 0.245584Z" fill="#FFE59E"/>
</svg>
