<svg width="1344" height="124" viewBox="0 0 1344 124" fill="none" xmlns="http://www.w3.org/2000/svg">
<path d="M60.2172 135.4C49.0172 135.4 38.8172 132.8 29.6172 127.6C20.5505 122.4 13.3505 114.8 8.01719 104.8C2.68385 94.6667 0.0171879 82.5333 0.0171879 68.4C0.0171879 54.4 2.75052 42.2667 8.21719 32C13.6839 21.6 21.0839 13.6667 30.4172 8.2C39.7505 2.73333 49.9505 -4.29153e-06 61.0172 -4.29153e-06C68.8839 -4.29153e-06 76.0839 1.59999 82.6172 4.79999C89.2839 7.86666 95.0172 11.8667 99.8172 16.8L85.2172 34.4C81.6172 30.9333 77.8839 28.3333 74.0172 26.6C70.2839 24.7333 66.1505 23.8 61.6172 23.8C55.2172 23.8 49.4839 25.6 44.4172 29.2C39.3505 32.6667 35.3505 37.7333 32.4172 44.4C29.6172 50.9333 28.2172 58.6 28.2172 67.4C28.2172 81.1333 31.1505 91.9333 37.0172 99.8C43.0172 107.667 51.0839 111.6 61.2172 111.6C71.2172 111.6 79.9505 107.4 87.4172 99L102.017 116.2C91.0839 129 77.1505 135.4 60.2172 135.4ZM293.233 133L267.233 84.6H249.833V133H222.433V2.39999H268.433C283.633 2.39999 295.699 5.53333 304.633 11.8C313.566 17.9333 318.033 28.1333 318.033 42.4C318.033 51.7333 315.899 59.6 311.633 66C307.366 72.2667 301.433 76.9333 293.833 80L324.033 133H293.233ZM249.833 62.8H266.033C274.299 62.8 280.566 61.1333 284.833 57.8C289.099 54.3333 291.233 49.2 291.233 42.4C291.233 35.8667 289.166 31.2 285.033 28.4C280.899 25.6 274.566 24.2 266.033 24.2H249.833V62.8ZM463.578 85.8L424.178 2.39999H453.578L466.178 33.6L476.978 62.4H477.778C478.311 61.2 478.845 59.9333 479.378 58.6C479.911 57.2667 480.511 55.8 481.178 54.2C484.378 46.0667 487.045 39.2 489.178 33.6L501.778 2.39999H530.378L490.978 85.8V133H463.578V85.8ZM680.388 135.4C671.588 135.4 662.988 133.8 654.587 130.6C646.188 127.267 638.788 122.533 632.388 116.4L648.188 97.6C652.988 101.867 658.254 105.267 663.988 107.8C669.854 110.333 675.521 111.6 680.988 111.6C687.388 111.6 692.254 110.4 695.588 108C699.054 105.467 700.788 102 700.788 97.6C700.788 94.8 699.988 92.4667 698.388 90.6C696.921 88.7333 694.988 87.2 692.588 86C690.321 84.8 686.588 83.1333 681.388 81L664.188 73.6C656.454 70.4 650.121 65.9333 645.188 60.2C640.254 54.3333 637.788 47 637.788 38.2C637.788 31.1333 639.721 24.7333 643.588 19C647.588 13.1333 653.054 8.53333 659.988 5.19999C666.921 1.73333 674.721 -4.29153e-06 683.388 -4.29153e-06C690.988 -4.29153e-06 698.454 1.53333 705.788 4.6C713.121 7.53333 719.454 11.6667 724.788 17L710.988 34.4C706.454 30.8 701.988 28.1333 697.588 26.4C693.188 24.6667 688.454 23.8 683.388 23.8C677.921 23.8 673.588 24.9333 670.388 27.2C667.188 29.4667 665.588 32.6 665.588 36.6C665.588 39.4 666.388 41.7333 667.988 43.6C669.721 45.4667 671.788 47 674.188 48.2C676.721 49.4 680.588 51.0667 685.788 53.2L702.588 60C710.988 63.4667 717.454 68.0667 721.988 73.8C726.521 79.4 728.788 86.6 728.788 95.4C728.788 102.733 726.854 109.467 722.988 115.6C719.121 121.6 713.521 126.4 706.188 130C698.854 133.6 690.254 135.4 680.388 135.4ZM873.233 25.4H836.833V2.39999H937.233V25.4H900.633V133H873.233V25.4ZM1110.97 100.4H1069.97L1061.17 133H1033.17L1074.77 2.39999H1107.37L1148.77 133H1119.77L1110.97 100.4ZM1105.37 79.2L1101.77 65.8C1100.17 59.9333 1097.77 50.7333 1094.57 38.2L1090.77 23.4H1089.97C1085.97 40.6 1082.44 54.7333 1079.37 65.8L1075.77 79.2H1105.37ZM1263.64 2.39999H1291.04V110H1343.44V133H1263.64V2.39999Z" fill="#FFF4D7"/>
</svg>
